<?xml version="1.0" encoding="UTF-8"?>
<!-- Generator: visioncortex VTracer 0.6.4 -->
<svg version="1.1" xmlns="http://www.w3.org/2000/svg" width="250" height="254">
<path d="M0 0 C82.5 0 165 0 250 0 C250 83.82 250 167.64 250 254 C167.5 254 85 254 0 254 C0 170.18 0 86.36 0 0 Z " fill="#FCFDFE" transform="translate(0,0)"/>
<path d="M0 0 C34.98 0 69.96 0 106 0 C106.04 12.66 106.08 25.33 106.12 38.38 C106.14 42.36 106.16 46.34 106.18 50.44 C106.19 55.34 106.19 55.34 106.19 57.65 C106.19 59.24 106.2 60.83 106.21 62.42 C106.36 86.47 100.19 105.56 83 123 C75.43 130.58 65.54 139.05 55 142 C49.52 141.78 45.47 140.03 40.88 137.19 C40.23 136.79 39.58 136.4 38.92 135.99 C32.39 131.85 26.81 126.87 21.38 121.39 C20.17 120.17 18.93 118.98 17.7 117.8 C13.48 113.5 10.53 108.79 7.75 103.5 C7.43 102.91 7.11 102.33 6.79 101.73 C0.2 88.38 -0.58 73.85 -0.39 59.28 C-0.38 57.75 -0.38 56.21 -0.38 54.68 C-0.36 49.1 -0.3 43.52 -0.25 37.94 C-0.17 25.42 -0.08 12.9 0 0 Z " fill="#020303" transform="translate(70,63)"/>
<path d="M0 0 C0.66 0 1.31 0 1.99 0 C4.06 0.01 6.12 0.02 8.19 0.04 C9.6 0.04 11.02 0.04 12.43 0.05 C15.87 0.06 19.31 0.08 22.75 0.1 C22.75 2.08 22.75 4.06 22.75 6.1 C18.79 7.09 14.83 8.08 10.75 9.1 C10.75 10.09 10.75 11.08 10.75 12.1 C13.72 12.1 16.69 12.1 19.75 12.1 C17.11 11.77 14.47 11.44 11.75 11.1 C11.75 10.44 11.75 9.78 11.75 9.1 C12.94 8.84 14.12 8.59 15.34 8.33 C25.48 6.17 25.48 6.17 35.44 3.35 C43.53 0.84 51.24 2.34 58.75 6.1 C59.79 26.19 54.63 44.07 41.18 59.51 C34.72 66.39 28.04 72.22 20 77.16 C19.08 77.73 19.08 77.73 18.14 78.32 C14.03 80.74 10.53 81.91 5.75 82.1 C-9.86 77.61 -24.75 62.32 -33.25 49.1 C-35.47 44.85 -37.43 40.54 -39.25 36.1 C-39.61 35.23 -39.97 34.35 -40.34 33.46 C-43.81 24.45 -43.46 15.58 -43.25 6.1 C-32.62 2.07 -25.15 0.93 -14.25 4.1 C-14.25 3.11 -14.25 2.12 -14.25 1.1 C-9.45 0.32 -4.86 -0.02 0 0 Z " fill="#0193CF" transform="translate(115.24609375,120.90234375)"/>
<path d="M0 0 C38.28 0 76.56 0 116 0 C116.04 13.82 116.08 27.64 116.12 41.88 C116.14 46.22 116.16 50.57 116.18 55.05 C116.19 60.4 116.19 60.4 116.19 62.91 C116.19 64.65 116.2 66.38 116.21 68.12 C116.35 93.09 110.1 113.51 92.28 131.79 C85.48 138.39 78.3 143.39 70 148 C69.07 148.54 68.13 149.08 67.17 149.64 C62.19 152.36 59.68 153.48 54 152 C44.78 147.98 36.81 142.27 29 136 C28.28 135.45 27.56 134.9 26.82 134.33 C10.77 121.33 2.49 102.12 0 82 C-0.08 79.22 -0.13 76.46 -0.11 73.68 C-0.11 72.86 -0.11 72.05 -0.11 71.21 C-0.11 68.6 -0.11 65.99 -0.1 63.38 C-0.1 61.76 -0.1 60.14 -0.09 58.52 C-0.09 52.53 -0.08 46.55 -0.06 40.56 C-0.04 27.18 -0.02 13.79 0 0 Z M5 5 C4.92 17.52 4.83 30.04 4.75 42.94 C4.71 46.85 4.68 50.77 4.64 54.81 C4.63 58.4 4.63 58.4 4.62 61.98 C4.61 63.55 4.6 65.12 4.58 66.68 C4.31 88.41 8.98 108.63 24.51 124.62 C25.99 126.1 27.49 127.55 29 129 C29.74 129.75 30.48 130.5 31.24 131.27 C35.63 135.47 40.47 138.75 45.62 141.94 C46.25 142.33 46.87 142.72 47.51 143.12 C51.63 145.57 55.1 146.86 60 147 C77.98 141.4 94.06 124.95 103.07 108.82 C105.66 103.77 107.5 98.46 109 93 C109.17 92.37 109.35 91.75 109.53 91.1 C111.58 82.48 111.25 73.76 111.2 64.96 C111.19 63.42 111.19 61.88 111.19 60.34 C111.18 54.69 111.15 49.03 111.12 43.38 C111.08 30.71 111.04 18.05 111 5 C76.02 5 41.04 5 5 5 Z " fill="#FAFAFA" transform="translate(65,58)"/>
<path d="M0 0 C0 7.59 0 15.18 0 23 C-1.32 22.67 -2.64 22.34 -4 22 C-11.64 21.39 -19.56 22.18 -27 24 C-27.33 24.66 -27.66 25.32 -28 26 C-20.08 26.33 -12.16 26.66 -4 27 C-3.34 28.65 -2.68 30.3 -2 32 C-1.04 31.72 -1.04 31.72 -0.06 31.44 C0.62 31.29 1.3 31.15 2 31 C3.94 32.94 3.4 36.47 3.56 39.06 C3.65 40.35 3.73 41.64 3.82 42.97 C3.88 43.97 3.94 44.97 4 46 C7.14 46.97 8.69 47.11 11.82 46 C17.73 43.07 17.73 43.07 21.31 37.88 C21.65 36.45 21.65 36.45 22 35 C27.05 31 27.05 31 30 31 C29.34 34.3 28.68 37.6 28 41 C26.35 41 24.7 41 23 41 C20.57 42.75 20.57 42.75 18.31 45.12 C13.09 50.05 7.45 55.37 0.11 56.41 C-3.83 55.89 -6.34 54.2 -9.44 51.88 C-10 51.47 -10.57 51.06 -11.16 50.64 C-15.29 47.63 -19.18 44.4 -23 41 C-23.66 40.67 -24.32 40.34 -25 40 C-25 40.66 -25 41.32 -25 42 C-26.94 41.69 -26.94 41.69 -29 41 C-29.92 38.23 -30.08 36.71 -30 33.88 C-30 32.6 -30 31.32 -30 30 C-30.33 29.67 -30.66 29.34 -31 29 C-31.09 27.07 -31.11 25.14 -31.1 23.21 C-31.09 22.05 -31.09 20.88 -31.09 19.67 C-31.08 18.44 -31.07 17.21 -31.06 15.94 C-31.06 14.7 -31.05 13.47 -31.05 12.19 C-31.04 9.13 -31.02 6.06 -31 3 C-23.27 -1.03 -8.05 -4.03 0 0 Z " fill="#0585BB" transform="translate(123,135)"/>
<path d="M0 0 C39.6 0 79.2 0 120 0 C120.06 14.27 120.12 28.55 120.19 43.25 C120.23 49.98 120.23 49.98 120.27 56.84 C120.28 62.37 120.28 62.37 120.29 64.97 C120.29 66.77 120.3 68.56 120.32 70.35 C120.4 80.65 120.32 90.12 117 100 C116.78 100.69 116.57 101.38 116.34 102.09 C107.83 127.79 87.85 143.95 64.68 156.14 C60.07 157.62 56.93 156.41 52.59 154.5 C51.37 153.87 50.15 153.22 48.94 152.56 C48.29 152.21 47.64 151.86 46.96 151.49 C26.71 140.19 10.95 122.92 3 101 C-0.03 88.68 -0.41 76.59 -0.29 63.96 C-0.29 62.31 -0.29 60.66 -0.28 59.01 C-0.27 52.99 -0.23 46.96 -0.19 40.94 C-0.13 27.43 -0.06 13.92 0 0 Z M2 2 C1.94 15.2 1.88 28.4 1.81 42 C1.79 46.14 1.76 50.27 1.73 54.53 C1.72 58.31 1.72 58.31 1.71 62.08 C1.71 63.74 1.7 65.39 1.68 67.05 C1.47 91.25 6.61 112.37 23 131 C25.53 133.53 28.21 135.77 31 138 C32.29 139.07 32.29 139.07 33.61 140.15 C39.28 144.64 45.02 148.33 51.44 151.62 C52.11 151.98 52.79 152.34 53.48 152.7 C56.23 154.05 58.43 155.01 61.52 154.94 C64.9 153.66 68.08 152.1 71.25 150.38 C71.92 150.02 72.58 149.66 73.27 149.28 C78.62 146.33 83.38 143.01 88 139 C89.21 138 89.21 138 90.45 136.98 C105.47 124.2 115.6 106.65 118 87 C118.13 84.13 118.13 81.27 118.11 78.4 C118.11 77.14 118.11 77.14 118.11 75.85 C118.11 73.14 118.11 70.43 118.1 67.72 C118.1 66.04 118.1 64.36 118.09 62.68 C118.09 56.47 118.08 50.27 118.06 44.06 C118.03 23.24 118.03 23.24 118 2 C79.72 2 41.44 2 2 2 Z " fill="#1B1B1B" transform="translate(63,56)"/>
<path d="M0 0 C0.66 0 1.31 0 1.99 0 C4.06 0.01 6.12 0.02 8.19 0.04 C9.6 0.04 11.02 0.04 12.43 0.05 C15.87 0.06 19.31 0.08 22.75 0.1 C22.75 2.08 22.75 4.06 22.75 6.1 C18.79 7.09 14.83 8.08 10.75 9.1 C10.03 12.73 9.59 15.76 9.44 19.4 C9.4 20.37 9.35 21.35 9.31 22.36 C9.27 23.36 9.23 24.37 9.19 25.41 C9.15 26.44 9.11 27.46 9.06 28.52 C8.95 31.05 8.85 33.57 8.75 36.1 C13.21 35.6 13.21 35.6 17.75 35.1 C16.76 35.43 15.77 35.76 14.75 36.1 C14.75 36.76 14.75 37.42 14.75 38.1 C16.73 38.1 18.71 38.1 20.75 38.1 C20.75 38.76 20.75 39.42 20.75 40.1 C22.4 40.1 24.05 40.1 25.75 40.1 C25.75 40.43 25.75 40.76 25.75 41.1 C30.04 41.43 34.33 41.76 38.75 42.1 C38.26 29.23 38.26 29.23 37.75 16.1 C38.41 16.1 39.07 16.1 39.75 16.1 C39.75 25.01 39.75 33.92 39.75 43.1 C36.76 43.17 36.76 43.17 33.7 43.25 C31.77 43.3 29.83 43.36 27.9 43.42 C25.9 43.47 23.89 43.52 21.88 43.57 C20 43.62 20 43.62 18.07 43.68 C16.91 43.72 15.75 43.75 14.55 43.78 C11.62 43.82 11.62 43.82 9.75 46.1 C8.76 46.1 7.77 46.1 6.75 46.1 C6.42 50.06 6.09 54.02 5.75 58.1 C5.42 58.1 5.09 58.1 4.75 58.1 C4.69 57.11 4.63 56.12 4.57 55.11 C4.44 53.18 4.44 53.18 4.32 51.22 C4.24 49.95 4.15 48.67 4.07 47.36 C3.96 44.21 3.96 44.21 2.75 42.1 C-5.17 41.77 -13.09 41.44 -21.25 41.1 C-20.59 39.78 -19.93 38.46 -19.25 37.1 C-11.56 34.73 -1.01 33.51 6.75 36.1 C7.08 28.84 7.41 21.58 7.75 14.1 C-0.81 13.94 -8.53 14.02 -16.95 15.76 C-19.25 16.1 -19.25 16.1 -21.25 15.1 C-17.9 11.75 -9.01 12.12 -4.56 11.97 C-1.45 11.97 1.65 12.01 4.75 12.1 C4.75 11.11 4.75 10.12 4.75 9.1 C3.45 9.16 2.16 9.22 0.82 9.29 C-4.3 9.31 -8.53 7.97 -13.25 6.1 C-13.58 4.45 -13.91 2.8 -14.25 1.1 C-9.45 0.32 -4.86 -0.02 0 0 Z " fill="#1D1D1D" transform="translate(115.24609375,120.90234375)"/>
<path d="M0 0 C6.59 0.04 12.72 0.94 19.19 2.19 C19.19 9.45 19.19 16.71 19.19 24.19 C9.19 24.19 9.19 24.19 6.19 23.19 C3.96 23.12 1.73 23.1 -0.5 23.12 C-1.68 23.13 -2.86 23.14 -4.07 23.15 C-5.43 23.17 -5.43 23.17 -6.81 23.19 C-6.84 19.54 -6.86 15.9 -6.88 12.25 C-6.88 11.21 -6.89 10.17 -6.9 9.1 C-6.91 7.61 -6.91 7.61 -6.91 6.1 C-6.92 5.18 -6.92 4.26 -6.93 3.32 C-6.69 -1.03 -3.7 0.02 0 0 Z " fill="#F6F6F6" transform="translate(130.8125,133.8125)"/>
<path d="M0 0 C0 7.59 0 15.18 0 23 C-1.32 22.67 -2.64 22.34 -4 22 C-5.66 21.91 -7.33 21.87 -9 21.88 C-9.85 21.87 -10.69 21.87 -11.56 21.87 C-13.92 21.91 -13.92 21.91 -15.81 22.51 C-19.13 23.25 -22.6 23 -26 23 C-26 15.74 -26 8.48 -26 1 C-6.37 -3.19 -6.37 -3.19 0 0 Z " fill="#EDEDED" transform="translate(123,135)"/>
<path d="M0 0 C1.98 0 3.96 0 6 0 C6 1.32 6 2.64 6 4 C7.65 4 9.3 4 11 4 C11 2.68 11 1.36 11 0 C12.98 0 14.96 0 17 0 C16.69 1.94 16.69 1.94 16 4 C15.01 4.33 14.02 4.66 13 5 C15.64 5.33 18.28 5.66 21 6 C21.33 4.68 21.66 3.36 22 2 C23.98 2.66 25.96 3.32 28 4 C27.52 5.29 27.04 6.58 26.56 7.88 C26.3 8.59 26.03 9.31 25.75 10.05 C25 12 25 12 24 14 C23.01 14 22.02 14 21 14 C21 14.66 21 15.32 21 16 C19.58 15.91 19.58 15.91 18.12 15.81 C16.58 15.91 16.58 15.91 15 16 C14.34 16.99 13.68 17.98 13 19 C12.34 18.01 11.68 17.02 11 16 C10.01 16 9.02 16 8 16 C8.66 16.66 9.32 17.32 10 18 C10 18.99 10 19.98 10 21 C7.69 20.67 5.38 20.34 3 20 C2.67 18.68 2.34 17.36 2 16 C0.93 16.12 -0.14 16.25 -1.25 16.38 C-5 16 -5 16 -7.44 13.12 C-9 10 -9 10 -9 8 C-9.66 7.67 -10.32 7.34 -11 7 C-11 5.68 -11 4.36 -11 3 C-9.02 2.67 -7.04 2.34 -5 2 C-4.67 3.32 -4.34 4.64 -4 6 C-3.34 6 -2.68 6 -2 6 C-0.36 4.36 -0.4 2.22 0 0 Z " fill="#A6A6A6" transform="translate(115,99)"/>
<path d="M0 0 C0.33 0 0.66 0 1 0 C1.2 11.01 1.38 22.01 1.55 33.02 C1.62 38.13 1.7 43.24 1.8 48.35 C1.89 53.29 1.97 58.23 2.03 63.17 C2.06 65.05 2.09 66.93 2.13 68.8 C2.34 78.98 2.29 88.23 -1 98 C-1.22 98.69 -1.44 99.38 -1.66 100.1 C-10.17 125.79 -30.16 141.95 -53.32 154.14 C-57.93 155.62 -61.07 154.41 -65.41 152.5 C-66.63 151.87 -67.85 151.22 -69.06 150.56 C-69.71 150.21 -70.36 149.86 -71.04 149.49 C-91.3 138.18 -107.03 120.93 -115 99 C-116.51 93.1 -117.48 87.97 -116 82 C-115.67 82 -115.34 82 -115 82 C-114.76 83.52 -114.76 83.52 -114.52 85.08 C-112.13 99.54 -107.44 112.8 -97.62 124 C-95 127 -95 127 -95 129 C-94.43 129.24 -93.86 129.49 -93.28 129.74 C-90.61 131.22 -88.76 133 -86.56 135.12 C-79.12 141.94 -69 149.52 -59 152 C-54.45 151.64 -50.7 149.52 -46.75 147.38 C-46.08 147.02 -45.42 146.66 -44.73 146.28 C-39.38 143.33 -34.62 140.01 -30 136 C-29.18 135.32 -28.36 134.65 -27.52 133.95 C-12.91 121.49 -3.36 104.07 -1 85 C-0.85 82.13 -0.82 79.27 -0.79 76.4 C-0.78 75.57 -0.77 74.74 -0.76 73.89 C-0.73 71.17 -0.71 68.44 -0.68 65.72 C-0.66 63.83 -0.64 61.93 -0.62 60.04 C-0.57 55.06 -0.52 50.09 -0.47 45.12 C-0.42 40.04 -0.36 34.95 -0.31 29.87 C-0.2 19.92 -0.1 9.96 0 0 Z " fill="#272727" transform="translate(181,58)"/>
<path d="M0 0 C-1.32 0.33 -2.64 0.66 -4 1 C-3.67 1.99 -3.34 2.98 -3 4 C-4.65 4.33 -6.3 4.66 -8 5 C-8 5.99 -8 6.98 -8 8 C-3.71 8 0.58 8 5 8 C5.66 6.35 6.32 4.7 7 3 C7.66 3 8.32 3 9 3 C9 2.34 9 1.68 9 1 C9.66 1 10.32 1 11 1 C11 1.66 11 2.32 11 3 C11.66 3 12.32 3 13 3 C13.56 3.96 13.56 3.96 14.12 4.94 C17.01 8.11 19.8 7.72 24 8 C24.33 6.68 24.66 5.36 25 4 C27.88 3.38 27.88 3.38 31 3 C31.66 3.66 32.32 4.32 33 5 C32.84 8.03 32.54 9.5 30.29 11.59 C27.64 13.22 25.57 13.66 22.5 14.12 C19.28 14.63 16.15 15.15 13 16 C12.75 18.42 12.75 18.42 13 21 C13.99 21.66 14.98 22.32 16 23 C16 23.66 16 24.32 16 25 C11.71 25 7.42 25 3 25 C3.33 24.01 3.66 23.02 4 22 C4.66 21.67 5.32 21.34 6 21 C6.65 18.98 6.65 18.98 7 17 C6.26 16.92 5.52 16.84 4.75 16.75 C2 16 2 16 0.12 13.94 C-1.97 11.62 -1.97 11.62 -5.62 11.81 C-6.74 11.87 -7.85 11.94 -9 12 C-9.66 11.67 -10.32 11.34 -11 11 C-11 10.34 -11 9.68 -11 9 C-12.32 9 -13.64 9 -15 9 C-15 8.34 -15 7.68 -15 7 C-12.53 7.5 -12.53 7.5 -10 8 C-10 6.68 -10 5.36 -10 4 C-8.68 4 -7.36 4 -6 4 C-6.66 2.68 -7.32 1.36 -8 0 C-2.25 -1.12 -2.25 -1.12 0 0 Z " fill="#848484" transform="translate(114,71)"/>
<path d="M0 0 C2.97 1.65 5.94 3.3 9 5 C8.67 5.99 8.34 6.98 8 8 C9.25 8.96 10.5 9.92 11.75 10.88 C12.79 11.68 12.79 11.68 13.86 12.49 C17.9 15.38 17.9 15.38 22.69 15.75 C23.45 15.5 24.21 15.25 25 15 C26.35 12.3 26.34 9.88 26.56 6.88 C26.65 5.78 26.73 4.68 26.82 3.55 C26.91 2.29 26.91 2.29 27 1 C28.94 0.44 28.94 0.44 31 0 C32.94 1.94 32.4 5.47 32.56 8.06 C32.65 9.35 32.73 10.64 32.82 11.97 C32.88 12.97 32.94 13.97 33 15 C36.14 15.97 37.69 16.11 40.82 15 C46.73 12.07 46.73 12.07 50.31 6.88 C50.54 5.93 50.77 4.98 51 4 C56.05 0 56.05 0 59 0 C58.34 3.3 57.68 6.6 57 10 C55.35 10 53.7 10 52 10 C49.57 11.75 49.57 11.75 47.31 14.12 C42.09 19.05 36.45 24.37 29.11 25.41 C25.17 24.89 22.66 23.19 19.56 20.88 C18.99 20.47 18.42 20.06 17.84 19.64 C14.75 17.4 11.83 15.05 9 12.5 C6.12 10.1 4.69 9.22 1 9 C0.67 6.03 0.34 3.06 0 0 Z " fill="#F3F3F3" transform="translate(94,166)"/>
<path d="M0 0 C1.17 -0 2.33 -0 3.53 -0 C4.76 -0 5.99 0 7.25 0.01 C9.09 0 9.09 0 10.97 -0 C12.72 -0 12.72 -0 14.5 0 C15.58 0 16.66 0 17.77 0 C20.25 0.13 20.25 0.13 21.25 1.13 C21.2 3.13 21.2 3.13 20.94 5.57 C20.86 6.37 20.78 7.18 20.7 8 C20.25 10.13 20.25 10.13 18.25 12.13 C18.91 8.83 19.57 5.53 20.25 2.13 C18.95 2.85 17.65 3.58 16.31 4.32 C15.58 4.73 14.85 5.13 14.1 5.55 C12.01 7.01 12.01 7.01 11.79 9.61 C11.25 12.13 11.25 12.13 9.18 13.9 C-0.04 19.13 -0.04 19.13 -4.75 19.13 C-6.75 17.13 -6.75 17.13 -6.98 13.47 C-6.98 12.01 -6.96 10.54 -6.94 9.07 C-6.94 8.32 -6.94 7.58 -6.94 6.81 C-6.88 0.14 -6.53 0.01 0 0 Z " fill="#0688BE" transform="translate(132.75,163.8671875)"/>
<path d="M0 0 C0.66 0 1.31 0 1.99 0 C4.06 0.01 6.12 0.02 8.19 0.04 C9.6 0.04 11.02 0.04 12.43 0.05 C15.87 0.06 19.31 0.08 22.75 0.1 C22.75 2.08 22.75 4.06 22.75 6.1 C18.79 7.09 14.83 8.08 10.75 9.1 C10.42 10.42 10.09 11.74 9.75 13.1 C8.43 12.77 7.11 12.44 5.75 12.1 C5.75 11.11 5.75 10.12 5.75 9.1 C4.83 8.89 3.9 8.69 2.95 8.48 C1.75 8.21 0.55 7.94 -0.68 7.66 C-2.48 7.26 -2.48 7.26 -4.3 6.85 C-7.25 6.1 -7.25 6.1 -8.25 5.1 C-9.91 5.06 -11.58 5.05 -13.25 5.1 C-13.58 3.78 -13.91 2.46 -14.25 1.1 C-9.45 0.32 -4.86 -0.02 0 0 Z " fill="#757575" transform="translate(115.24609375,120.90234375)"/>
<path d="M0 0 C6.27 0.03 12 0.88 18.12 2.19 C18.12 6.48 18.12 10.77 18.12 15.19 C15.12 11.19 15.12 11.19 15.12 9.19 C14.47 9.19 13.81 9.19 13.12 9.19 C12.47 10.51 11.81 11.83 11.12 13.19 C10.47 12.2 9.81 11.21 9.12 10.19 C8.79 9.86 8.47 9.53 8.12 9.19 C7.47 9.85 6.81 10.51 6.12 11.19 C5.47 10.2 4.81 9.21 4.12 8.19 C1.05 8.96 1.05 8.96 -0.88 11.19 C-0.88 9.87 -0.88 8.55 -0.88 7.19 C-2.08 7.47 -2.08 7.47 -3.31 7.75 C-4.58 7.97 -4.58 7.97 -5.88 8.19 C-6.88 7.19 -6.88 7.19 -7 4.19 C-6.78 -0.98 -4.65 0.03 0 0 Z " fill="#F9F9F9" transform="translate(130.875,133.8125)"/>
<path d="M0 0 C1.62 -0.08 3.25 -0.14 4.88 -0.19 C5.78 -0.22 6.68 -0.26 7.62 -0.29 C8.8 -0.15 8.8 -0.15 10 0 C12.3 3.45 12.24 4.71 12.2 8.76 C12.19 9.77 12.19 10.78 12.18 11.82 C12.15 13.73 12.15 13.73 12.12 15.69 C12.08 19.75 12.04 23.81 12 28 C3.42 28 -5.16 28 -14 28 C-14 27.67 -14 27.34 -14 27 C-10.04 26.5 -10.04 26.5 -6 26 C-6 25.34 -6 24.68 -6 24 C-7.98 24 -9.96 24 -12 24 C-12 23.34 -12 22.68 -12 22 C-5.08 20.39 1.05 21.78 8 23 C8 15.74 8 8.48 8 1 C5.36 1 2.72 1 0 1 C0 0.67 0 0.34 0 0 Z " fill="#868788" transform="translate(142,135)"/>
<path d="M0 0 C7.59 0 15.18 0 23 0 C23 0.66 23 1.32 23 2 C26.3 1.34 29.6 0.68 33 0 C29.75 3.25 28.89 3.48 24.56 4.12 C21.32 4.63 18.17 5.15 15 6 C14.75 8.42 14.75 8.42 15 11 C15.99 11.66 16.98 12.32 18 13 C18 13.66 18 14.32 18 15 C13.71 15 9.42 15 5 15 C5.33 14.01 5.66 13.02 6 12 C6.66 11.67 7.32 11.34 8 11 C8.65 8.98 8.65 8.98 9 7 C8.26 6.92 7.52 6.83 6.75 6.75 C3.46 5.85 2.14 4.62 0 2 C0 1.34 0 0.68 0 0 Z " fill="#ECECEC" transform="translate(112,81)"/>
<path d="M0 0 C0.33 0 0.66 0 1 0 C1.2 11.01 1.38 22.01 1.55 33.02 C1.62 38.13 1.7 43.24 1.8 48.35 C1.89 53.29 1.97 58.23 2.03 63.17 C2.06 65.05 2.09 66.93 2.13 68.8 C2.34 78.98 2.29 88.23 -1 98 C-1.22 98.69 -1.44 99.38 -1.66 100.1 C-4.89 109.85 -9.82 117.86 -16 126 C-16.66 125.34 -17.32 124.68 -18 124 C-17.65 123.58 -17.3 123.17 -16.93 122.74 C-6.12 109.24 -0.92 93.59 -0.79 76.4 C-0.78 75.16 -0.78 75.16 -0.76 73.89 C-0.73 71.17 -0.71 68.44 -0.68 65.72 C-0.66 63.83 -0.64 61.93 -0.62 60.04 C-0.57 55.06 -0.52 50.09 -0.47 45.12 C-0.42 40.04 -0.36 34.95 -0.31 29.87 C-0.2 19.92 -0.1 9.96 0 0 Z " fill="#434343" transform="translate(181,58)"/>
<path d="M0 0 C0.66 0.99 1.32 1.98 2 3 C1.01 3.33 0.02 3.66 -1 4 C3.62 4 8.24 4 13 4 C10.53 3.5 10.53 3.5 8 3 C8 2.67 8 2.34 8 2 C10.97 2.33 13.94 2.66 17 3 C16.67 3.66 16.34 4.32 16 5 C16.66 5.33 17.32 5.66 18 6 C18 6.99 18 7.98 18 9 C16.58 8.91 16.58 8.91 15.12 8.81 C13.58 8.91 13.58 8.91 12 9 C11.01 10.48 11.01 10.48 10 12 C9.34 11.01 8.68 10.02 8 9 C7.01 9 6.02 9 5 9 C5.66 9.66 6.32 10.32 7 11 C7 11.99 7 12.98 7 14 C4.69 13.67 2.38 13.34 0 13 C-0.33 11.68 -0.66 10.36 -1 9 C-2.11 9.06 -3.23 9.12 -4.38 9.19 C-5.57 9.13 -6.77 9.06 -8 9 C-10 6 -10 6 -10 2 C-9.01 2.33 -8.02 2.66 -7 3 C-4.66 2.72 -2.32 2.39 0 2 C0 1.34 0 0.68 0 0 Z " fill="#515151" transform="translate(118,106)"/>
<path d="M0 0 C0.33 0.66 0.66 1.32 1 2 C3.22 2.39 3.22 2.39 5.81 2.5 C9.4 2.71 11.88 3.19 15 5 C15 5.99 15 6.98 15 8 C15.99 8.66 16.98 9.32 18 10 C18.25 12.25 18.25 12.25 18.07 15.01 C18.02 15.99 17.96 16.98 17.91 18 C17.84 19.03 17.76 20.06 17.69 21.12 C17.6 22.69 17.6 22.69 17.5 24.28 C17.35 26.85 17.18 29.43 17 32 C19.97 31.67 22.94 31.34 26 31 C25.01 31.33 24.02 31.66 23 32 C23 32.66 23 33.32 23 34 C24.98 34 26.96 34 29 34 C29 34.33 29 34.66 29 35 C24.55 35.5 24.55 35.5 20 36 C19.67 36.99 19.34 37.98 19 39 C17.35 39 15.7 39 14 39 C13.67 38.01 13.34 37.02 13 36 C15.47 35.5 15.47 35.5 18 35 C17.34 34.34 16.68 33.68 16 33 C15.77 30.66 15.77 30.66 15.8 27.77 C15.81 26.74 15.82 25.71 15.82 24.65 C15.84 23.57 15.86 22.49 15.88 21.38 C15.88 20.29 15.89 19.2 15.9 18.08 C15.93 15.39 15.96 12.69 16 10 C7.5 9.79 -0.34 9.93 -8.71 11.66 C-11 12 -11 12 -13 11 C-9.65 7.65 -0.76 8.03 3.69 7.87 C6.79 7.87 9.89 7.91 13 8 C13 7.01 13 6.02 13 5 C11.7 5.06 10.4 5.12 9.06 5.19 C3.94 5.21 -0.28 3.87 -5 2 C-5 1.67 -5 1.34 -5 1 C-3.35 0.67 -1.7 0.34 0 0 Z " fill="#505050" transform="translate(107,125)"/>
<path d="M0 0 C0.06 3.6 0.09 7.21 0.12 10.81 C0.14 11.84 0.16 12.86 0.18 13.92 C0.18 14.9 0.19 15.88 0.2 16.89 C0.21 17.8 0.22 18.71 0.23 19.64 C0 22 0 22 -2 25 C5.92 25.33 13.84 25.66 22 26 C22 26.33 22 26.66 22 27 C13.09 27 4.18 27 -5 27 C-5 18.75 -5 10.5 -5 2 C-1 0 -1 0 0 0 Z " fill="#959595" transform="translate(97,136)"/>
<path d="M0 0 C0 4.18 -1.65 5.12 -4.56 8.06 C-13.53 16.94 -25.93 26.12 -38 30 C-42.56 29.74 -45.86 28.27 -49.81 26.06 C-50.77 25.54 -51.72 25.01 -52.71 24.47 C-55 23 -55 23 -56 21 C-51.51 22.38 -47.43 24.18 -43.25 26.29 C-39.11 27.6 -36.39 26.18 -32.55 24.4 C-31.28 23.73 -30.01 23.06 -28.75 22.38 C-27.75 21.84 -27.75 21.84 -26.73 21.28 C-16.67 15.73 -8.1 8.1 0 0 Z " fill="#222222" transform="translate(163,183)"/>
<path d="M0 0 C0.66 0 1.32 0 2 0 C2 8.91 2 17.82 2 27 C-1 27.07 -1 27.07 -4.05 27.15 C-5.99 27.2 -7.92 27.26 -9.85 27.32 C-11.86 27.37 -13.86 27.42 -15.87 27.47 C-17.76 27.53 -17.76 27.53 -19.68 27.59 C-21.42 27.63 -21.42 27.63 -23.2 27.68 C-26.14 27.72 -26.14 27.72 -28 30 C-28.99 30 -29.98 30 -31 30 C-31.33 33.96 -31.66 37.92 -32 42 C-32.33 42 -32.66 42 -33 42 C-33.17 39.73 -33.33 37.46 -33.5 35.19 C-33.59 33.92 -33.69 32.66 -33.78 31.36 C-33.92 29.24 -34 27.12 -34 25 C-32.91 25.23 -31.81 25.45 -30.69 25.69 C-29.47 25.79 -28.25 25.89 -27 26 C-25.98 25.02 -24.98 24.02 -24 23 C-19.82 22.69 -16.06 23.02 -12 24 C-12 24.33 -12 24.66 -12 25 C-7.71 25.33 -3.42 25.66 1 26 C0.5 13.13 0.5 13.13 0 0 Z " fill="#132A34" transform="translate(153,137)"/>
<path d="M0 0 C1.09 0.02 2.18 0.05 3.3 0.07 C4.4 0.09 5.5 0.11 6.62 0.12 C7.47 0.15 8.31 0.17 9.18 0.2 C9.51 0.86 9.84 1.52 10.18 2.2 C8.86 2.2 7.54 2.2 6.18 2.2 C5.93 4.61 5.93 4.61 6.18 7.2 C7.17 7.86 8.16 8.52 9.18 9.2 C9.18 9.86 9.18 10.52 9.18 11.2 C4.89 11.2 0.6 11.2 -3.82 11.2 C-3.49 10.21 -3.16 9.22 -2.82 8.2 C-2.16 7.87 -1.5 7.54 -0.82 7.2 C-0.17 5.17 -0.17 5.17 0.18 3.2 C-1.47 2.87 -3.12 2.54 -4.82 2.2 C-2.82 0.2 -2.82 0.2 0 0 Z " fill="#8C8C8C" transform="translate(120.8203125,84.8046875)"/>
<path d="M0 0 C7.26 0 14.52 0 22 0 C22 1.32 22 2.64 22 4 C18.27 4.86 14.82 5.13 11 5.12 C9.99 5.13 8.98 5.13 7.94 5.13 C5.18 5.01 2.68 4.62 0 4 C0 2.68 0 1.36 0 0 Z " fill="#FCFCFC" transform="translate(112,122)"/>
<path d="M0 0 C0.93 0.21 1.86 0.41 2.81 0.62 C3.14 2.28 3.47 3.92 3.81 5.62 C5.46 5.95 7.11 6.28 8.81 6.62 C8.81 7.61 8.81 8.61 8.81 9.62 C3.86 9.3 -1.09 8.97 -6.19 8.62 C-6.19 6.31 -6.19 4 -6.19 1.62 C-3.19 -0.38 -3.19 -0.38 0 0 Z " fill="#23A7DF" transform="translate(9.1875,113.375)"/>
<path d="M0 0 C2.66 1.33 2.74 2.47 3.69 5.25 C4.84 8.85 5.3 11.33 4 15 C-1.45 16.33 -1.45 16.33 -3.88 14.88 C-5.36 12.41 -5.36 10.83 -5 8 C-4.34 7.34 -3.68 6.68 -3 6 C-2.01 6 -1.02 6 0 6 C-0.28 4.79 -0.28 4.79 -0.56 3.56 C-0.71 2.72 -0.85 1.87 -1 1 C-0.67 0.67 -0.34 0.34 0 0 Z " fill="#2BABE0" transform="translate(161,227)"/>
<path d="M0 0 C5.75 0.75 5.75 0.75 8 3 C8.36 5.83 8.36 7.41 6.88 9.88 C4.08 11.55 2.06 10.75 -1 10 C-1.33 11.32 -1.66 12.64 -2 14 C-2.66 14 -3.32 14 -4 14 C-3.37 8.95 -1.87 4.7 0 0 Z " fill="#12A1DC" transform="translate(164,14)"/>
<path d="M0 0 C3.49 0.72 6.52 2.06 9.75 3.56 C11.23 4.25 11.23 4.25 12.73 4.94 C13.48 5.29 14.23 5.64 15 6 C13.12 11.88 13.12 11.88 12 13 C9.66 12.71 7.33 12.38 5 12 C4.62 10.01 4.29 8.01 4 6 C4.33 5.67 4.66 5.34 5 5 C3.76 4.32 3.76 4.32 2.5 3.62 C1.68 3.09 0.85 2.55 0 2 C0 1.34 0 0.68 0 0 Z " fill="#42B4E3" transform="translate(9,71)"/>
<path d="M0 0 C-1.32 0.33 -2.64 0.66 -4 1 C-3.67 1.99 -3.34 2.98 -3 4 C-4.65 4.33 -6.3 4.66 -8 5 C-8 5.99 -8 6.98 -8 8 C6.85 8.5 6.85 8.5 22 9 C21.67 9.66 21.34 10.32 21 11 C20.34 10.99 19.68 10.99 19 10.98 C15.98 10.96 12.96 10.95 9.94 10.94 C8.38 10.92 8.38 10.92 6.79 10.91 C0.31 10.88 0.31 10.88 -6.12 11.57 C-9 12 -9 12 -11 11 C-11 10.34 -11 9.68 -11 9 C-12.32 9 -13.64 9 -15 9 C-15 8.34 -15 7.68 -15 7 C-12.53 7.5 -12.53 7.5 -10 8 C-10 6.68 -10 5.36 -10 4 C-8.68 4 -7.36 4 -6 4 C-6.66 2.68 -7.32 1.36 -8 0 C-2.25 -1.12 -2.25 -1.12 0 0 Z " fill="#8E8E8E" transform="translate(114,71)"/>
<path d="M0 0 C0.66 0.33 1.32 0.66 2 1 C2 4 2 4 0 6.19 C-0.66 6.79 -1.32 7.38 -2 8 C-0.35 8 1.3 8 3 8 C3 8.66 3 9.32 3 10 C1.23 10.5 -0.54 11 -2.31 11.5 C-3.3 11.78 -4.28 12.06 -5.3 12.34 C-8 13 -8 13 -11 13 C-11 12.01 -11 11.02 -11 10 C-9.68 10 -8.36 10 -7 10 C-7 9.34 -7 8.68 -7 8 C-8.98 7.34 -10.96 6.68 -13 6 C-12.67 5.01 -12.34 4.02 -12 3 C-11.13 3.5 -11.13 3.5 -10.25 4 C-7.8 5.27 -7.8 5.27 -4 5 C-1.73 2.58 -1.73 2.58 0 0 Z " fill="#21A7DE" transform="translate(13,148)"/>
<path d="M0 0 C1.32 0 2.64 0 4 0 C4.33 0.66 4.66 1.32 5 2 C6.32 1.34 7.64 0.68 9 0 C9.66 0.66 10.32 1.32 11 2 C13.6 1.68 13.6 1.68 16 1 C16.33 1.99 16.66 2.98 17 4 C17.33 3.34 17.66 2.68 18 2 C18.66 2 19.32 2 20 2 C20.66 3.98 21.32 5.96 22 8 C21.34 8 20.68 8 20 8 C20 7.34 20 6.68 20 6 C19.34 6 18.68 6 18 6 C18 6.66 18 7.32 18 8 C17.42 7.65 16.84 7.3 16.25 6.94 C13.52 5.8 12.8 6.28 10 7 C7.66 6.73 5.32 6.4 3 6 C3 4.35 3 2.7 3 1 C2.34 1 1.68 1 1 1 C1 2.65 1 4.3 1 6 C0.67 6 0.34 6 0 6 C0 4.02 0 2.04 0 0 Z " fill="#575757" transform="translate(126,141)"/>
<path d="M0 0 C3.94 1.47 5.02 3.37 6.75 7.12 C7.18 8.04 7.61 8.95 8.05 9.88 C8.52 10.93 8.52 10.93 9 12 C8.01 12 7.02 12 6 12 C5.67 11.67 5.34 11.34 5 11 C4.57 12.21 4.57 12.21 4.12 13.44 C3 16 3 16 1 17 C1 14.03 1 11.06 1 8 C-1.31 7.34 -3.62 6.68 -6 6 C-5.67 5.01 -5.34 4.02 -5 3 C-3.02 3.66 -1.04 4.32 1 5 C0.67 3.35 0.34 1.7 0 0 Z " fill="#1DA5DE" transform="translate(184,221)"/>
<path d="M0 0 C4.69 0.88 8.03 3.28 11 7 C11 10.31 11 10.31 10 13 C9 14 9 14 6.44 14.44 C1.53 13.81 -1.31 11.15 -5 8 C-4.67 7.34 -4.34 6.68 -4 6 C-0.52 7.26 2.07 8.76 5 11 C5.99 11.33 6.98 11.66 8 12 C6.98 8.44 5.72 6.57 2.88 4.31 C1.93 3.55 0.98 2.79 0 2 C0 1.34 0 0.68 0 0 Z " fill="#19A4DD" transform="translate(27,46)"/>
<path d="M0 0 C2 3 2 3 1.69 5.62 C1 8 1 8 0 9 C-2.33 9.04 -4.67 9.04 -7 9 C-7.33 6.03 -7.66 3.06 -8 0 C-4.67 -1.11 -3.3 -1.02 0 0 Z " fill="#26A9DF" transform="translate(152,237)"/>
<path d="M0 0 C4.75 0.75 4.75 0.75 7 3 C7.12 5.62 7.12 5.62 7 8 C6.01 8.33 5.02 8.66 4 9 C3.67 9.99 3.34 10.98 3 12 C0.69 10.02 -1.62 8.04 -4 6 C-2.68 4.02 -1.36 2.04 0 0 Z " fill="#19A4DD" transform="translate(208,200)"/>
<path d="M0 0 C0.29 6.05 0.29 6.05 0 8 C-3 10 -3 10 -5.56 9.94 C-8 9 -8 9 -9.31 6.62 C-10 4 -10 4 -10 1 C-6.56 0.38 -3.51 0 0 0 Z " fill="#2FACE0" transform="translate(13,137)"/>
<path d="M0 0 C2.69 0.18 5.33 0.62 8 1 C7.34 4.3 6.68 7.6 6 11 C0.25 10.25 0.25 10.25 -2 8 C-1.42 1.42 -1.42 1.42 0 0 Z " fill="#2BABE0" transform="translate(153,11)"/>
<path d="M0 0 C0.99 0.1 1.98 0.21 3 0.31 C5.35 3.84 5.21 5.34 5.12 9.5 C5.11 10.59 5.09 11.67 5.07 12.79 C5.04 14.04 5.04 14.04 5 15.31 C4.01 15.31 3.02 15.31 2 15.31 C1.67 11.35 1.34 7.39 1 3.31 C0.01 3.64 -0.98 3.97 -2 4.31 C-2.33 7.61 -2.66 10.91 -3 14.31 C-3.66 14.31 -4.32 14.31 -5 14.31 C-5.05 12.35 -5.09 10.4 -5.12 8.44 C-5.15 7.35 -5.17 6.26 -5.2 5.13 C-4.92 1.1 -3.99 0.42 0 0 Z " fill="#15A2DD" transform="translate(120,238.6875)"/>
<path d="M0 0 C1.98 0 3.96 0 6 0 C6 1.65 6 3.3 6 5 C-5.52 8.44 -5.52 8.44 -11 8 C-11 8.66 -11 9.32 -11 10 C-8.02 9.9 -8.02 9.9 -5.04 9.8 C-3 10 -3 10 0 12 C-4.29 12 -8.58 12 -13 12 C-13 10.35 -13 8.7 -13 7 C-11.58 6.66 -10.17 6.33 -8.75 6 C-7.57 5.72 -7.57 5.72 -6.36 5.44 C-4 5 -4 5 0 5 C0 3.35 0 1.7 0 0 Z " fill="#1A2A30" transform="translate(138,122)"/>
<path d="M0 0 C3.3 0.33 4.62 0.62 7 3 C6.67 6.3 6.38 7.62 4 10 C1.5 10.31 1.5 10.31 -1 10 C-3 7 -3 7 -2.75 4.44 C-2 2 -2 2 0 0 Z " fill="#62C1E8" transform="translate(197,34)"/>
<path d="M0 0 C2.44 0.75 2.44 0.75 4.44 2.75 C4.06 5.88 4.06 5.88 3.44 8.75 C1.46 9.41 -0.52 10.07 -2.56 10.75 C-4.86 7.31 -5.56 6.03 -5.56 1.75 C-2.56 -0.25 -2.56 -0.25 0 0 Z " fill="#68C3E9" transform="translate(173.5625,228.25)"/>
<path d="M0 0 C0 0.99 0 1.98 0 3 C0.66 3 1.32 3 2 3 C2.12 5.38 2.12 5.38 2 8 C0 10 0 10 -3.12 10.12 C-4.07 10.08 -5.02 10.04 -6 10 C-6.99 8.02 -7.98 6.04 -9 4 C-2.25 0 -2.25 0 0 0 Z " fill="#10A0DC" transform="translate(24,177)"/>
<path d="M0 0 C2.97 0 5.94 0 9 0 C9.12 3.38 9.12 3.38 9 7 C7 9 7 9 4.5 9.25 C2 9 2 9 0 7 C-0.12 3.38 -0.12 3.38 0 0 Z " fill="#089DDB" transform="translate(3,126)"/>
<path d="M0 0 C2.5 0.25 2.5 0.25 4.5 2.25 C4.87 5.12 4.88 6.66 3.31 9.12 C1.5 10.25 1.5 10.25 -1.12 10 C-3.5 9.25 -3.5 9.25 -4.5 8.25 C-4.69 5.31 -4.69 5.31 -4.5 2.25 C-2.5 0.25 -2.5 0.25 0 0 Z " fill="#16A2DD" transform="translate(118.5,6.75)"/>
<path d="M0 0 C5.23 1.64 10.15 3.39 15 6 C14.67 6.66 14.34 7.32 14 8 C9.25 7.12 9.25 7.12 7 6 C6.67 7.32 6.34 8.64 6 10 C0.46 9.38 0.46 9.38 -1.88 7.44 C-2.25 6.96 -2.62 6.49 -3 6 C0.62 4.79 1.64 5.46 5 7 C4.57 6.57 4.13 6.13 3.69 5.69 C2.12 4.12 0.56 2.56 -1 1 C-0.67 0.67 -0.34 0.34 0 0 Z " fill="#18A3DD" transform="translate(227,170)"/>
<path d="M0 0 C0.99 0.33 1.98 0.66 3 1 C4.11 0.72 4.11 0.72 5.25 0.44 C8.9 -0.14 11.54 0.85 15 2 C15 2.66 15 3.32 15 4 C14.22 3.94 13.43 3.88 12.62 3.81 C11.33 3.91 11.33 3.91 10 4 C9.01 5.48 9.01 5.48 8 7 C7.34 6.01 6.68 5.02 6 4 C5.01 4 4.02 4 3 4 C3.66 4.66 4.32 5.32 5 6 C5 6.99 5 7.98 5 9 C2.69 8.67 0.38 8.34 -2 8 C-1.12 1.12 -1.12 1.12 0 0 Z " fill="#9F9F9F" transform="translate(120,111)"/>
<path d="M0 0 C2.97 0.99 5.94 1.98 9 3 C8.34 5.31 7.68 7.62 7 10 C4.12 10.12 4.12 10.12 1 10 C0.34 9.34 -0.32 8.68 -1 8 C-0.97 5.27 -0.44 2.7 0 0 Z " fill="#17A3DD" transform="translate(10,85)"/>
<path d="M0 0 C0.33 0.66 0.66 1.32 1 2 C3.22 2.39 3.22 2.39 5.81 2.5 C9.4 2.71 11.88 3.19 15 5 C14.67 6.32 14.34 7.64 14 9 C13.2 9.05 12.4 9.1 11.58 9.15 C4.74 9.61 -1.9 10.39 -8.64 11.7 C-11 12 -11 12 -13 11 C-9.65 7.65 -0.76 8.03 3.69 7.87 C6.79 7.87 9.89 7.91 13 8 C13 7.01 13 6.02 13 5 C11.7 5.06 10.4 5.12 9.06 5.19 C3.94 5.21 -0.28 3.87 -5 2 C-5 1.67 -5 1.34 -5 1 C-3.35 0.67 -1.7 0.34 0 0 Z " fill="#243339" transform="translate(107,125)"/>
<path d="M0 0 C0.66 0.33 1.32 0.66 2 1 C1.67 2.32 1.34 3.64 1 5 C2.65 4.67 4.3 4.34 6 4 C5.34 5.98 4.68 7.96 4 10 C5.65 9.34 7.3 8.68 9 8 C9 8.99 9 9.98 9 11 C5.63 12.5 3.8 13 0 13 C0.66 11.35 1.32 9.7 2 8 C0.35 8.66 -1.3 9.32 -3 10 C-3.33 9.34 -3.66 8.68 -4 8 C-3.22 6.05 -3.22 6.05 -2.06 3.88 C-1.68 3.15 -1.3 2.43 -0.91 1.68 C-0.61 1.13 -0.31 0.57 0 0 Z " fill="#1DA5DE" transform="translate(207,41)"/>
<path d="M0 0 C0.33 0 0.66 0 1 0 C1.16 1.02 1.32 2.03 1.48 3.08 C2.95 11.96 5.06 19.83 9 28 C9.4 28.83 9.8 29.66 10.21 30.52 C11.12 32.36 12.05 34.18 13 36 C12.01 36.5 12.01 36.5 11 37 C-3.2 11.39 -3.2 11.39 0 0 Z " fill="#242424" transform="translate(65,140)"/>
<path d="M0 0 C0.09 3.62 0.14 7.25 0.19 10.88 C0.23 12.42 0.23 12.42 0.26 14 C0.27 14.99 0.28 15.98 0.29 16.99 C0.31 17.9 0.32 18.81 0.34 19.75 C0.23 20.49 0.12 21.24 0 22 C-1.48 22.99 -1.48 22.99 -3 24 C-3 16.41 -3 8.82 -3 1 C-1 0 -1 0 0 0 Z " fill="#A0A0A0" transform="translate(97,136)"/>
<path d="M0 0 C0.33 1.65 0.66 3.3 1 5 C0.01 5.5 0.01 5.5 -1 6 C-3.62 5.06 -3.62 5.06 -6 4 C-6 4.66 -6 5.32 -6 6 C-4.35 6.33 -2.7 6.66 -1 7 C-1.33 7.66 -1.66 8.32 -2 9 C-6.88 8.12 -6.88 8.12 -8 7 C-7.69 3.5 -7.69 3.5 -7 0 C-4.33 -1.33 -2.83 -0.67 0 0 Z " fill="#21A7DE" transform="translate(181,21)"/>
<path d="M0 0 C0.93 0.82 1.86 1.65 2.81 2.5 C10.01 8.66 17.72 14.02 25.91 18.77 C27.64 19.79 29.33 20.89 31 22 C18.42 20.46 8.38 10.9 0 2 C0 1.34 0 0.68 0 0 Z " fill="#0F181C" transform="translate(90,181)"/>
<path d="M0 0 C0.99 0 1.98 0 3 0 C2.69 1.94 2.38 3.88 2.06 5.81 C1.89 6.89 1.71 7.97 1.54 9.08 C1 12 1 12 0 15 C-0.99 14.67 -1.98 14.34 -3 14 C-2.91 12.39 -2.91 12.39 -2.81 10.75 C-3.01 6.81 -3.48 5.84 -6 3 C-6 2.34 -6 1.68 -6 1 C-5.01 1 -4.02 1 -3 1 C-2.34 1.66 -1.68 2.32 -1 3 C-0.67 2.01 -0.34 1.02 0 0 Z " fill="#23A8DF" transform="translate(101,9)"/>
<path d="M0 0 C2.38 -0.12 2.38 -0.12 5 0 C5.66 0.66 6.32 1.32 7 2 C6.43 7.57 6.43 7.57 5 9 C2 9.12 2 9.12 -1 9 C-2 8 -2 8 -2.06 5.44 C-2.04 4.63 -2.02 3.83 -2 3 C0.97 3.5 0.97 3.5 4 4 C4 3.34 4 2.68 4 2 C2.68 2 1.36 2 0 2 C0 1.34 0 0.68 0 0 Z " fill="#16A2DD" transform="translate(78,231)"/>
<path d="M0 0 C3.26 0.42 4.63 0.63 7 3 C7.25 5.5 7.25 5.5 7 8 C6.34 8.66 5.68 9.32 5 10 C2.38 9.62 2.38 9.62 0 9 C0.88 5.12 0.88 5.12 2 4 C1.34 3.67 0.68 3.34 0 3 C0 3.66 0 4.32 0 5 C-0.66 5 -1.32 5 -2 5 C-1.12 1.12 -1.12 1.12 0 0 Z " fill="#19A3DD" transform="translate(192,215)"/>
<path d="M0 0 C1.68 0.29 3.34 0.62 5 1 C5.33 1.99 5.66 2.98 6 4 C4.68 4.33 3.36 4.66 2 5 C2 5.66 2 6.32 2 7 C2.99 7 3.98 7 5 7 C5 6.34 5 5.68 5 5 C5.66 5 6.32 5 7 5 C6.67 6.32 6.34 7.64 6 9 C4.25 9.75 4.25 9.75 2 10 C-0.31 8.38 -0.31 8.38 -2 6 C-1.7 1.7 -1.7 1.7 0 0 Z " fill="#2EACE0" transform="translate(60,24)"/>
<path d="M0 0 C0.99 0.33 1.98 0.66 3 1 C3.33 2.32 3.66 3.64 4 5 C6.97 5.33 9.94 5.66 13 6 C12.67 6.99 12.34 7.98 12 9 C10.35 8.67 8.7 8.34 7 8 C7.99 9.49 7.99 9.49 9 11 C9 11.99 9 12.98 9 14 C5.23 12.74 4.79 11.49 2.81 8.12 C2.28 7.24 1.75 6.36 1.21 5.45 C0 3 0 3 0 0 Z " fill="#1CA5DE" transform="translate(211,188)"/>
<path d="M0 0 C-0.33 1.32 -0.66 2.64 -1 4 C-1.62 3.79 -2.24 3.59 -2.88 3.38 C-3.58 3.25 -4.28 3.13 -5 3 C-7.29 4.84 -7.29 4.84 -7.12 7.62 C-7.06 8.8 -7.06 8.8 -7 10 C-4.53 10.99 -4.53 10.99 -2 12 C-2 12.66 -2 13.32 -2 14 C-4.88 14.19 -4.88 14.19 -8 14 C-10.54 10.18 -10.58 7.47 -10 3 C-7.82 -1.1 -4.21 -0.24 0 0 Z " fill="#0D9FDB" transform="translate(149,4)"/>
<path d="M0 0 C1.65 0.33 3.3 0.66 5 1 C5.69 3.31 5.69 3.31 6 6 C4.88 7.81 4.88 7.81 3 9 C0.38 9.25 0.38 9.25 -2 9 C-3 8 -3 8 -3.06 5.44 C-3.04 4.63 -3.02 3.83 -3 3 C-1.68 3 -0.36 3 1 3 C1.33 3.33 1.66 3.66 2 4 C2.33 3.34 2.66 2.68 3 2 C2.01 1.67 1.02 1.34 0 1 C0 0.67 0 0.34 0 0 Z " fill="#27A9DF" transform="translate(45,210)"/>
<path d="M0 0 C0.99 0.33 1.98 0.66 3 1 C-15.37 15.66 -15.37 15.66 -23.31 16.14 C-25.25 15.88 -25.25 15.88 -28 15 C-28 14.67 -28 14.34 -28 14 C-27.45 13.96 -26.9 13.92 -26.34 13.88 C-17.09 12.66 -6.19 7.11 0 0 Z " fill="#151E22" transform="translate(146,189)"/>
<path d="M0 0 C0.99 0 1.98 0 3 0 C3 2.31 3 4.62 3 7 C3.66 7 4.32 7 5 7 C5.33 5.02 5.66 3.04 6 1 C6.66 1 7.32 1 8 1 C8 3.97 8 6.94 8 10 C5.12 10.12 5.12 10.12 2 10 C0 8 0 8 -0.2 6.05 C-0.1 3.03 -0.1 3.03 0 0 Z " fill="#24A8DF" transform="translate(103,238)"/>
<path d="M0 0 C0 4.22 -1.74 5.18 -4.69 8.12 C-19.71 23 -19.71 23 -26 23 C-26 22.34 -26 21.68 -26 21 C-24.31 19.81 -22.57 18.7 -20.81 17.62 C-13.08 12.62 -6.5 6.5 0 0 Z " fill="#191919" transform="translate(163,183)"/>
<path d="M0 0 C0 0.66 0 1.32 0 2 C-1.98 2.66 -3.96 3.32 -6 4 C-6 4.66 -6 5.32 -6 6 C-3.36 5.67 -0.72 5.34 2 5 C2 5.66 2 6.32 2 7 C-2.45 8.49 -2.45 8.49 -7 10 C-9 6 -9 6 -8.88 3.88 C-8 2 -8 2 -6.19 0.75 C-4 0 -4 0 0 0 Z " fill="#19A4DD" transform="translate(20,167)"/>
<path d="M0 0 C3.06 0.19 3.06 0.19 5.06 2.19 C4.69 4.81 4.69 4.81 4.06 7.19 C2.41 7.52 0.76 7.85 -0.94 8.19 C-0.61 6.21 -0.28 4.23 0.06 2.19 C-0.93 2.68 -0.93 2.68 -1.94 3.19 C-1.94 4.51 -1.94 5.83 -1.94 7.19 C-2.93 6.86 -3.92 6.53 -4.94 6.19 C-3.87 0.25 -3.87 0.25 0 0 Z " fill="#0D9FDB" transform="translate(238.9375,138.8125)"/>
<path d="M0 0 C-0.33 0.99 -0.66 1.98 -1 3 C-2.65 3 -4.3 3 -6 3 C-6 3.99 -6 4.98 -6 6 C-2.53 5.5 -2.53 5.5 1 5 C1 5.99 1 6.98 1 8 C-5.05 8.98 -5.05 8.98 -7 9 C-7.66 8.34 -8.32 7.68 -9 7 C-8.81 4.5 -8.81 4.5 -8 2 C-4.77 -0.15 -3.72 -0.2 0 0 Z " fill="#25A8DF" transform="translate(241,98)"/>
<path d="M0 0 C6.07 -0.25 11.16 0.3 17 2 C15.68 2.33 14.36 2.66 13 3 C13 3.66 13 4.32 13 5 C7.39 5 1.78 5 -4 5 C-3 3 -3 3 0 2 C0 1.34 0 0.68 0 0 Z " fill="#D7D7D7" transform="translate(119,106)"/>
<path d="M0 0 C0 0.66 0 1.32 0 2 C0.99 2.33 1.98 2.66 3 3 C2.66 6.12 2.38 7.62 0.12 9.88 C-0.58 10.25 -1.28 10.62 -2 11 C-2.99 10.67 -3.98 10.34 -5 10 C-3.35 8.02 -1.7 6.04 0 4 C-3.47 5.48 -3.47 5.48 -7 7 C-7 6.01 -7 5.02 -7 4 C-2.66 0 -2.66 0 0 0 Z " fill="#24A8DF" transform="translate(220,54)"/>
<path d="M0 0 C2.77 1.47 4.19 3.54 6 6.06 C2.42 6.06 0.95 4.97 -2 3.06 C-1.34 3.83 -0.68 4.59 0 5.38 C2 8.06 2 8.06 2 11.06 C-1.8 9.57 -3.61 7.31 -6 4.06 C-2.62 0.08 -2.62 0.08 0 0 Z " fill="#25A8DF" transform="translate(41,40.9375)"/>
<path d="M0 0 C0.33 0.99 0.66 1.98 1 3 C0.01 4.48 0.01 4.48 -1 6 C1.47 6.99 1.47 6.99 4 8 C4 8.66 4 9.32 4 10 C3.34 9.92 2.67 9.83 1.99 9.75 C-4.55 8.95 -4.55 8.95 -11 10 C-11 9.01 -11 8.02 -11 7 C-9.39 6.38 -9.39 6.38 -7.75 5.75 C-4.48 4.36 -2.34 2.72 0 0 Z " fill="#0D9FDB" transform="translate(241,84)"/>
<path d="M0 0 C2.97 0 5.94 0 9 0 C9.62 2.88 9.62 2.88 10 6 C8 8 8 8 4.38 8.12 C3.26 8.08 2.15 8.04 1 8 C1 7.34 1 6.68 1 6 C4.47 5.5 4.47 5.5 8 5 C8 4.34 8 3.68 8 3 C5.36 3 2.72 3 0 3 C0 2.01 0 1.02 0 0 Z " fill="#27A9DF" transform="translate(234,110)"/>
<path d="M0 0 C2.96 0.61 4.38 1.25 7 3 C7 3.66 7 4.32 7 5 C6.41 5.08 5.81 5.16 5.2 5.25 C2.32 6.23 1.48 7.59 -0.25 10.06 C-0.77 10.8 -1.29 11.53 -1.83 12.29 C-2.41 13.13 -2.41 13.13 -3 14 C-3.66 13.67 -4.32 13.34 -5 13 C-3.9 10.72 -2.76 8.62 -1.38 6.5 C0.32 3.89 0.32 3.89 0 0 Z " fill="#17A3DD" transform="translate(193,24)"/>
<path d="M0 0 C0.99 0.33 1.98 0.66 3 1 C3 2.67 3 4.33 3 6 C0.03 6.66 -2.94 7.32 -6 8 C-6 5.69 -6 3.38 -6 1 C-4.79 1.03 -4.79 1.03 -3.56 1.06 C-1.07 1.3 -1.07 1.3 0 0 Z " fill="#989898" transform="translate(116,141)"/>
<path d="M0 0 C0.33 1.65 0.66 3.3 1 5 C-1.75 5.69 -1.75 5.69 -5 6 C-7.37 4.56 -7.37 4.56 -9 3 C-8.67 2.01 -8.34 1.02 -8 0 C-5.14 -1.43 -3.07 -0.6 0 0 Z " fill="#65C1E8" transform="translate(12,114)"/>
<path d="M0 0 C1.65 0 3.3 0 5 0 C5.33 0.99 5.66 1.98 6 3 C3.65 5.77 1.85 6.52 -1.69 7.19 C-2.5 7.35 -3.3 7.5 -4.14 7.67 C-5.06 7.83 -5.06 7.83 -6 8 C-4.48 4.63 -3.48 3.39 0 2 C0 1.34 0 0.68 0 0 Z " fill="#0C0C0C" transform="translate(140,76)"/>
<path d="M0 0 C0.99 0 1.98 0 3 0 C3 0.66 3 1.32 3 2 C2.34 2 1.68 2 1 2 C1.33 4.31 1.66 6.62 2 9 C1.34 9 0.68 9 0 9 C0 11.31 0 13.62 0 16 C-0.66 16 -1.32 16 -2 16 C-2.91 10.46 -3.38 6.28 -1 1 C-0.67 0.67 -0.34 0.34 0 0 Z " fill="#019ADA" transform="translate(128,0)"/>
<path d="M0 0 C0.99 0 1.98 0 3 0 C3 0.66 3 1.32 3 2 C2.34 2 1.68 2 1 2 C1 2.66 1 3.32 1 4 C2.65 4.33 4.3 4.66 6 5 C6 6.32 6 7.64 6 9 C5.01 9.33 4.02 9.66 3 10 C3 9.34 3 8.68 3 8 C0.53 7.01 0.53 7.01 -2 6 C-1.12 1.12 -1.12 1.12 0 0 Z " fill="#35AFE1" transform="translate(200,208)"/>
<path d="M0 0 C2 1 2 1 3.12 3.75 C3.92 6.7 4.18 8.97 4 12 C3.55 11.5 3.09 11.01 2.62 10.5 C1.12 8.77 1.12 8.77 -1 9 C-1.33 9.66 -1.66 10.32 -2 11 C-2.66 11 -3.32 11 -4 11 C-3.67 9.35 -3.34 7.7 -3 6 C-2.01 6 -1.02 6 0 6 C-0.28 4.79 -0.28 4.79 -0.56 3.56 C-0.71 2.72 -0.85 1.87 -1 1 C-0.67 0.67 -0.34 0.34 0 0 Z " fill="#1AA4DD" transform="translate(161,227)"/>
<path d="M0 0 C0 0.66 0 1.32 0 2 C2.31 2.33 4.62 2.66 7 3 C7 3.99 7 4.98 7 6 C5.4 5.89 3.79 5.76 2.19 5.62 C1.29 5.56 0.4 5.49 -0.52 5.41 C-3 5 -3 5 -6 3 C-6 2.34 -6 1.68 -6 1 C-3.92 0.45 -2.16 0 0 0 Z " fill="#29AAE0" transform="translate(9,96)"/>
<path d="M0 0 C1.65 0.33 3.3 0.66 5 1 C5.33 1.99 5.66 2.98 6 4 C5.01 3.67 4.02 3.34 3 3 C3 4.65 3 6.3 3 8 C1.35 8.33 -0.3 8.66 -2 9 C-2.33 8.01 -2.66 7.02 -3 6 C-2.34 5.67 -1.68 5.34 -1 5 C-0.34 2.47 -0.34 2.47 0 0 Z " fill="#16A2DD" transform="translate(63,223)"/>
<path d="M0 0 C-1.31 3.94 -2.92 6.23 -6 9 C-6.33 8.34 -6.66 7.68 -7 7 C-6.67 6.01 -6.34 5.02 -6 4 C-7.32 3.67 -8.64 3.34 -10 3 C-10 2.34 -10 1.68 -10 1 C-6.56 0.38 -3.51 0 0 0 Z " fill="#1DA5DE" transform="translate(31,189)"/>
<path d="M0 0 C5.75 0.75 5.75 0.75 8 3 C8.12 5.63 8.12 5.63 8 8 C5.67 8 3.33 8 1 8 C1.33 6.35 1.66 4.7 2 3 C1.34 3 0.68 3 0 3 C0 2.01 0 1.02 0 0 Z " fill="#81CDEC" transform="translate(164,14)"/>
<path d="M0 0 C0.66 0.33 1.32 0.66 2 1 C2.41 3.07 2.41 3.07 2.62 5.56 C2.7 6.39 2.77 7.22 2.85 8.07 C2.9 8.7 2.95 9.34 3 10 C-0.08 8.8 -3.06 7.52 -6 6 C-6 5.34 -6 4.68 -6 4 C-3.52 4.49 -3.52 4.49 -1 5 C-0.67 3.35 -0.34 1.7 0 0 Z " fill="#1AA4DD" transform="translate(54,29)"/>
<path d="M0 0 C0.66 0.33 1.32 0.66 2 1 C2 3.97 2 6.94 2 10 C1.34 10 0.68 10 0 10 C-0.33 8.68 -0.66 7.36 -1 6 C-1.99 7.49 -1.99 7.49 -3 9 C-3.99 9 -4.98 9 -6 9 C-4.47 5.56 -2.4 2.88 0 0 Z " fill="#1AA4DD" transform="translate(91,234)"/>
<path d="M0 0 C0.33 0.99 0.66 1.98 1 3 C-3 9.36 -8.55 14.86 -14 20 C-14.66 19.67 -15.32 19.34 -16 19 C-15.52 18.55 -15.03 18.1 -14.53 17.64 C-8.92 12.25 -4.42 6.39 0 0 Z " fill="#0B1114" transform="translate(164,169)"/>
<path d="M0 0 C2.97 0.33 5.94 0.66 9 1 C9 1.66 9 2.32 9 3 C9.99 3 10.98 3 12 3 C12 3.99 12 4.98 12 6 C10.02 6 8.04 6 6 6 C6 5.34 6 4.68 6 4 C4.35 3.67 2.7 3.34 1 3 C0.67 2.01 0.34 1.02 0 0 Z " fill="#0F9FDC" transform="translate(229,164)"/>
<path d="M0 0 C0.66 0.66 1.32 1.32 2 2 C2.66 1.84 3.32 1.67 4 1.5 C4.66 1.34 5.32 1.17 6 1 C6.66 1.66 7.32 2.32 8 3 C7.62 5.12 7.62 5.12 7 7 C6.34 6.34 5.68 5.68 5 5 C4.34 5.66 3.68 6.32 3 7 C0.88 6.62 0.88 6.62 -1 6 C-1.04 4.33 -1.04 2.67 -1 1 C-0.67 0.67 -0.34 0.34 0 0 Z " fill="#22A7DE" transform="translate(234,149)"/>
<path d="M0 0 C2.97 0 5.94 0 9 0 C9.33 1.65 9.66 3.3 10 5 C7.03 4.67 4.06 4.34 1 4 C0.67 2.68 0.34 1.36 0 0 Z " fill="#BABABA" transform="translate(101,122)"/>
<path d="M0 0 C0.66 0 1.32 0 2 0 C1.38 4.01 -0.59 6.8 -3 10 C-3.99 10.33 -4.98 10.66 -6 11 C-6 9.02 -6 7.04 -6 5 C-5.38 4.73 -4.76 4.46 -4.12 4.19 C-1.7 3.04 -1.7 3.04 0 0 Z " fill="#1FA6DE" transform="translate(54,216)"/>
<path d="M0 0 C0.99 0 1.98 0 3 0 C1.63 2.96 0.23 5.6 -2 8 C-4.69 8.75 -4.69 8.75 -7 9 C-5.52 3.33 -5.52 3.33 -2.94 1.69 C-2.3 1.46 -1.66 1.23 -1 1 C-0.67 0.67 -0.34 0.34 0 0 Z " fill="#1AA4DD" transform="translate(37,201)"/>
<path d="M0 0 C-0.33 0.99 -0.66 1.98 -1 3 C-1.66 3 -2.32 3 -3 3 C-3 3.66 -3 4.32 -3 5 C-2.01 5.33 -1.02 5.66 0 6 C0 6.66 0 7.32 0 8 C-2.97 7.01 -5.94 6.02 -9 5 C-8.67 4.01 -8.34 3.02 -8 2 C-5.1 0.55 -3.26 0 0 0 Z " fill="#19A4DD" transform="translate(244,128)"/>
<path d="M0 0 C0.66 0 1.32 0 2 0 C2.33 0.66 2.66 1.32 3 2 C4.65 1.67 6.3 1.34 8 1 C8.33 2.65 8.66 4.3 9 6 C8.01 6.33 7.02 6.66 6 7 C6.33 5.68 6.66 4.36 7 3 C6.34 3 5.68 3 5 3 C4.67 3.99 4.34 4.98 4 6 C2.68 5.67 1.36 5.34 0 5 C0 3.35 0 1.7 0 0 Z " fill="#20A6DE" transform="translate(5,104)"/>
<path d="M0 0 C2.38 0.25 2.38 0.25 5 1 C6.31 3.06 6.31 3.06 7 5 C6.34 5 5.68 5 5 5 C5 5.66 5 6.32 5 7 C3.35 7 1.7 7 0 7 C0 4.69 0 2.38 0 0 Z " fill="#7FCCEC" transform="translate(208,200)"/>
<path d="M0 0 C2.31 0 4.62 0 7 0 C7.33 0.99 7.66 1.98 8 3 C8.66 3.33 9.32 3.66 10 4 C6.04 4 2.08 4 -2 4 C-1.34 2.68 -0.68 1.36 0 0 Z " fill="#3B3B3B" transform="translate(96,158)"/>
<path d="M0 0 C2.97 0 5.94 0 9 0 C9 0.99 9 1.98 9 3 C7.35 3 5.7 3 4 3 C4 3.99 4 4.98 4 6 C4.66 6.66 5.32 7.32 6 8 C4.35 7.67 2.7 7.34 1 7 C0.67 4.69 0.34 2.38 0 0 Z " fill="#13A1DC" transform="translate(3,138)"/>
<path d="M0 0 C-0.19 0.62 -0.37 1.24 -0.56 1.88 C-1.24 4.04 -1.24 4.04 0 6 C-2.38 6.12 -2.38 6.12 -5 6 C-5.66 5.34 -6.32 4.68 -7 4 C-6.75 1.94 -6.75 1.94 -6 0 C-3.51 -1.25 -2.59 -0.78 0 0 Z " fill="#20A6DE" transform="translate(10,129)"/>
<path d="M0 0 C3.69 0.69 3.69 0.69 5 2 C5.04 3.67 5.04 5.33 5 7 C2.38 7 0.49 6.69 -2 6 C-1.12 1.12 -1.12 1.12 0 0 Z " fill="#24A8DF" transform="translate(118,7)"/>
<path d="M0 0 C2.51 1.26 2.87 2.5 4 5 C2.31 6.19 2.31 6.19 0 7 C-2.75 5.62 -2.75 5.62 -5 4 C-3.37 2.29 -2.13 1.07 0 0 Z " fill="#77C9EB" transform="translate(20,178)"/>
<path d="M0 0 C1.98 0.66 3.96 1.32 6 2 C5.01 4.64 4.02 7.28 3 10 C2.34 10 1.68 10 1 10 C1.33 8.68 1.66 7.36 2 6 C1.01 5.67 0.02 5.34 -1 5 C-0.67 3.35 -0.34 1.7 0 0 Z " fill="#999999" transform="translate(137,101)"/>
<path d="M0 0 C1.98 0 3.96 0 6 0 C5.69 1.94 5.69 1.94 5 4 C4.01 4.33 3.02 4.66 2 5 C3.65 5 5.3 5 7 5 C7 5.66 7 6.32 7 7 C4.03 6.67 1.06 6.34 -2 6 C-2 5.34 -2 4.68 -2 4 C-1.34 4 -0.68 4 0 4 C0 2.68 0 1.36 0 0 Z " fill="#D1D1D1" transform="translate(126,99)"/>
<path d="M0 0 C1.32 0.33 2.64 0.66 4 1 C3.34 1 2.68 1 2 1 C2 1.66 2 2.32 2 3 C3.32 3.33 4.64 3.66 6 4 C6.56 5.94 6.56 5.94 7 8 C6 9 6 9 3.44 9.06 C2.63 9.04 1.83 9.02 1 9 C1 8.34 1 7.68 1 7 C1.99 7 2.98 7 4 7 C4 6.34 4 5.68 4 5 C2.68 5 1.36 5 0 5 C0 3.35 0 1.7 0 0 Z " fill="#0F9FDC" transform="translate(76,16)"/>
<path d="M0 0 C1.32 0 2.64 0 4 0 C4.33 0.66 4.66 1.32 5 2 C6.32 1.34 7.64 0.68 9 0 C9 1.98 9 3.96 9 6 C7.02 6 5.04 6 3 6 C3 4.35 3 2.7 3 1 C2.34 1 1.68 1 1 1 C1 2.65 1 4.3 1 6 C0.67 6 0.34 6 0 6 C0 4.02 0 2.04 0 0 Z " fill="#6E6E6E" transform="translate(126,141)"/>
<path d="M0 0 C0.99 0 1.98 0 3 0 C3 1.65 3 3.3 3 5 C4.98 4.67 6.96 4.34 9 4 C9 4.99 9 5.98 9 7 C7.02 7.66 5.04 8.32 3 9 C0.71 5.56 0 4.28 0 0 Z " fill="#14A2DD" transform="translate(168,230)"/>
<path d="M0 0 C0.81 0.19 1.62 0.39 2.45 0.59 C3.06 0.75 3.68 0.9 4.31 1.06 C4.31 1.72 4.31 2.38 4.31 3.06 C3.53 3 2.75 2.94 1.94 2.88 C0.64 2.97 0.64 2.97 -0.69 3.06 C-1.68 4.55 -1.68 4.55 -2.69 6.06 C-3.35 5.07 -4.01 4.08 -4.69 3.06 C-7.25 2.33 -7.25 2.33 -9.69 2.06 C-6.42 -1.2 -4.23 -1.04 0 0 Z " fill="#DADADA" transform="translate(130.6875,111.9375)"/>
<path d="M0 0 C0.66 0 1.32 0 2 0 C2 0.66 2 1.32 2 2 C2.66 2 3.32 2 4 2 C4.66 3.32 5.32 4.64 6 6 C2.7 6 -0.6 6 -4 6 C-3.34 4.68 -2.68 3.36 -2 2 C-1.34 2 -0.68 2 0 2 C0 1.34 0 0.68 0 0 Z " fill="#787878" transform="translate(123,72)"/>
<path d="M0 0 C0.99 0 1.98 0 3 0 C3 0.66 3 1.32 3 2 C3.66 2 4.32 2 5 2 C5.33 5.3 5.66 8.6 6 12 C5.01 11.67 4.02 11.34 3 11 C2.05 8.5 2.05 8.5 1.31 5.44 C1.06 4.43 0.81 3.41 0.55 2.37 C0.37 1.59 0.19 0.81 0 0 Z " fill="#19A4DD" transform="translate(88,9)"/>
<path d="M0 0 C1.65 0 3.3 0 5 0 C4.67 1.98 4.34 3.96 4 6 C4.66 6.33 5.32 6.66 6 7 C6 7.66 6 8.32 6 9 C4.35 9 2.7 9 1 9 C0.67 6.03 0.34 3.06 0 0 Z " fill="#10A0DC" transform="translate(144,237)"/>
<path d="M0 0 C0.99 0 1.98 0 3 0 C1.91 3.78 1.09 6.47 -2 9 C-3.32 8.34 -4.64 7.68 -6 7 C-6 6.34 -6 5.68 -6 5 C-5.38 4.92 -4.76 4.84 -4.12 4.75 C-1.82 4.19 -1.82 4.19 -0.75 1.94 C-0.5 1.3 -0.25 0.66 0 0 Z " fill="#1DA5DE" transform="translate(73,228)"/>
<path d="M0 0 C1.98 0 3.96 0 6 0 C6.33 1.65 6.66 3.3 7 5 C4.75 6.62 4.75 6.62 2 8 C-0.31 7.19 -0.31 7.19 -2 6 C-0.35 6 1.3 6 3 6 C2.01 4.02 1.02 2.04 0 0 Z " fill="#404040" transform="translate(122,114)"/>
<path d="M0 0 C1.98 0 3.96 0 6 0 C6 1.32 6 2.64 6 4 C6.66 4.33 7.32 4.66 8 5 C5.36 5 2.72 5 0 5 C0 3.35 0 1.7 0 0 Z " fill="#A4A4A4" transform="translate(115,99)"/>
<path d="M0 0 C0.69 1.81 0.69 1.81 1 4 C-0.12 5.75 -0.12 5.75 -2 7 C-4.69 7.19 -4.69 7.19 -7 7 C-7.33 5.68 -7.66 4.36 -8 3 C-5.03 3.49 -5.03 3.49 -2 4 C-1.67 3.01 -1.34 2.02 -1 1 C-0.67 0.67 -0.34 0.34 0 0 Z " fill="#22A7DE" transform="translate(203,37)"/>
<path d="M0 0 C0 0.66 0 1.32 0 2 C-0.66 2 -1.32 2 -2 2 C-1.34 4.64 -0.68 7.28 0 10 C-0.99 9.67 -1.98 9.34 -3 9 C-4.69 5.44 -4.69 5.44 -6 2 C-3 0 -3 0 0 0 Z " fill="#18A3DD" transform="translate(73,19)"/>
<path d="M0 0 C0.66 0.99 1.32 1.98 2 3 C-2.02 4.81 -5.61 6.34 -10 7 C-10 5.35 -10 3.7 -10 2 C-9.01 2.33 -8.02 2.66 -7 3 C-4.66 2.72 -2.32 2.39 0 2 C0 1.34 0 0.68 0 0 Z " fill="#878787" transform="translate(118,106)"/>
<path d="M0 0 C1.68 0.29 3.34 0.62 5 1 C4.34 1.43 3.68 1.87 3 2.31 C2.34 2.87 1.68 3.43 1 4 C1 4.99 1 5.98 1 7 C1.66 7.66 2.32 8.32 3 9 C1.35 8.67 -0.3 8.34 -2 8 C-1.12 1.12 -1.12 1.12 0 0 Z " fill="#0C9FDB" transform="translate(153,11)"/>
<path d="M0 0 C0.64 0.56 0.64 0.56 1.29 1.14 C5.37 4.7 9.55 7.91 14 11 C13.34 11.66 12.68 12.32 12 13 C9.99 11.21 8 9.42 6 7.62 C5.43 7.12 4.86 6.61 4.27 6.09 C2.81 4.76 1.4 3.39 0 2 C0 1.34 0 0.68 0 0 Z " fill="#080D0F" transform="translate(90,181)"/>
<path d="M0 0 C0.33 0 0.66 0 1 0 C1.39 2.46 1.76 4.91 2.12 7.38 C2.24 8.07 2.35 8.77 2.46 9.49 C2.73 11.32 2.87 13.16 3 15 C2.34 15.66 1.68 16.32 1 17 C0.63 15.11 0.28 13.21 -0.06 11.31 C-0.26 10.26 -0.46 9.2 -0.66 8.11 C-0.99 5.09 -0.77 2.92 0 0 Z " fill="#464646" transform="translate(65,140)"/>
<path d="M0 0 C1.32 0.66 2.64 1.32 4 2 C3.67 3.65 3.34 5.3 3 7 C1.02 6.34 -0.96 5.68 -3 5 C-2.34 4.67 -1.68 4.34 -1 4 C-0.35 1.98 -0.35 1.98 0 0 Z " fill="#41B3E3" transform="translate(178,20)"/>
<path d="M0 0 C2.31 0 4.62 0 7 0 C7 0.66 7 1.32 7 2 C6.34 2 5.68 2 5 2 C5 2.99 5 3.98 5 5 C3.06 5.56 3.06 5.56 1 6 C0 5 0 5 -0.06 2.44 C-0.04 1.63 -0.02 0.83 0 0 Z " fill="#49B7E4" transform="translate(76,234)"/>
<path d="M0 0 C2.97 0 5.94 0 9 0 C9 0.99 9 1.98 9 3 C6.03 3 3.06 3 0 3 C0 2.01 0 1.02 0 0 Z " fill="#2EACE0" transform="translate(235,122)"/>
<path d="M0 0 C2.97 0 5.94 0 9 0 C7.02 0.99 7.02 0.99 5 2 C4.67 2.66 4.34 3.32 4 4 C2.15 4.63 2.15 4.63 -0.06 5.12 C-0.8 5.29 -1.53 5.46 -2.29 5.63 C-2.85 5.75 -3.42 5.88 -4 6 C-4 5.34 -4 4.68 -4 4 C-2.68 3.34 -1.36 2.68 0 2 C0 1.34 0 0.68 0 0 Z " fill="#E3E3E3" transform="translate(114,104)"/>
<path d="M0 0 C0.66 0.99 1.32 1.98 2 3 C3.98 2.67 5.96 2.34 8 2 C7.67 3.32 7.34 4.64 7 6 C4.13 6.12 4.13 6.12 1 6 C0.34 5.34 -0.32 4.68 -1 4 C-0.62 1.88 -0.62 1.88 0 0 Z " fill="#099DDB" transform="translate(10,89)"/>
<path d="M0 0 C2.97 0 5.94 0 9 0 C9.33 0.66 9.66 1.32 10 2 C8.68 2 7.36 2 6 2 C5.67 2.99 5.34 3.98 5 5 C3.68 4.67 2.36 4.34 1 4 C2 2 2 2 3 1 C2.01 0.67 1.02 0.34 0 0 Z " fill="#5A5A5A" transform="translate(121,85)"/>
<path d="M0 0 C3.96 1.98 3.96 1.98 8 4 C8 4.66 8 5.32 8 6 C4.66 5.44 1.97 4.65 -1 3 C-0.67 2.01 -0.34 1.02 0 0 Z " fill="#1FA6DE" transform="translate(222,180)"/>
<path d="M0 0 C-0.99 1.32 -1.98 2.64 -3 4 C-4.65 3.67 -6.3 3.34 -8 3 C-8 2.01 -8 1.02 -8 0 C-4.95 -0.98 -3.05 -0.98 0 0 Z " fill="#4E4E4E" transform="translate(113,157)"/>
<path d="M0 0 C0.62 1.88 0.62 1.88 1 4 C0.34 4.66 -0.32 5.32 -1 6 C-2.32 6 -3.64 6 -5 6 C-4.67 4.35 -4.34 2.7 -4 1 C-2.68 0.67 -1.36 0.34 0 0 Z " fill="#40B3E3" transform="translate(243,141)"/>
<path d="M0 0 C0.66 0.33 1.32 0.66 2 1 C0.88 3.97 -0.22 6.33 -2 9 C-2.99 8.67 -3.98 8.34 -5 8 C-3.35 5.36 -1.7 2.72 0 0 Z " fill="#1AA4DD" transform="translate(59,219)"/>
<path d="M0 0 C0.66 0 1.32 0 2 0 C1.12 3.88 1.12 3.88 0 5 C-2.33 5.04 -4.67 5.04 -7 5 C-7 4.34 -7 3.68 -7 3 C-3.53 2.5 -3.53 2.5 0 2 C0 1.34 0 0.68 0 0 Z " fill="#0FA0DC" transform="translate(242,113)"/>
<path d="M0 0 C3.26 0.35 4.02 1.02 6.25 3.56 C7.12 4.77 7.12 4.77 8 6 C7.01 6 6.02 6 5 6 C4.34 5.34 3.68 4.68 3 4 C0.93 3.36 0.93 3.36 -1 3 C-0.67 2.01 -0.34 1.02 0 0 Z " fill="#0FA0DC" transform="translate(39,41)"/>
<path d="M0 0 C3.36 1.39 5.07 2.92 7 6 C7 6.66 7 7.32 7 8 C4.14 6.72 1.98 5.47 0 3 C0 2.01 0 1.02 0 0 Z " fill="#1FA6DE" transform="translate(44,36)"/>
<path d="M0 0 C0.66 0 1.32 0 2 0 C2.66 2.97 3.32 5.94 4 9 C3.01 9.5 3.01 9.5 2 10 C1.01 7.03 0.02 4.06 -1 1 C-0.67 0.67 -0.34 0.34 0 0 Z " fill="#21A7DE" transform="translate(84,13)"/>
<path d="M0 0 C4.46 0.99 4.46 0.99 9 2 C9 2.99 9 3.98 9 5 C7.68 4.75 6.37 4.47 5.06 4.19 C4.33 4.04 3.6 3.89 2.85 3.73 C2.24 3.49 1.63 3.25 1 3 C0.67 2.01 0.34 1.02 0 0 Z " fill="#20A6DE" transform="translate(231,158)"/>
<path d="M0 0 C-1 3 -1 3 -2.81 4.19 C-5 5 -5 5 -9 5 C-9 4.34 -9 3.68 -9 3 C-2.25 0 -2.25 0 0 0 Z " fill="#17A3DD" transform="translate(235,80)"/>
<path d="M0 0 C0.99 0 1.98 0 3 0 C3 2.31 3 4.62 3 7 C2.01 7.33 1.02 7.66 0 8 C0 5.36 0 2.72 0 0 Z " fill="#31ADE1" transform="translate(103,238)"/>
<path d="M0 0 C0.99 0.33 1.98 0.66 3 1 C2.34 3.64 1.68 6.28 1 9 C0.34 9 -0.32 9 -1 9 C-0.67 6.03 -0.34 3.06 0 0 Z " fill="#19A4DD" transform="translate(98,237)"/>
<path d="M0 0 C0.66 0 1.32 0 2 0 C1.67 3.96 1.34 7.92 1 12 C-1.24 8.65 -1.17 8.09 -0.62 4.31 C-0.51 3.5 -0.4 2.7 -0.29 1.86 C-0.19 1.25 -0.1 0.63 0 0 Z " fill="#3E3E3E" transform="translate(181,138)"/>
<path d="M0 0 C-1.32 0.33 -2.64 0.66 -4 1 C-3.67 1.99 -3.34 2.98 -3 4 C-4 5 -4 5 -6.56 5.06 C-7.77 5.03 -7.77 5.03 -9 5 C-8.01 4.67 -7.02 4.34 -6 4 C-6.66 2.68 -7.32 1.36 -8 0 C-2.25 -1.12 -2.25 -1.12 0 0 Z " fill="#E5E5E5" transform="translate(114,71)"/>
<path d="M0 0 C0 0.66 0 1.32 0 2 C0.66 2.33 1.32 2.66 2 3 C1.34 3.66 0.68 4.32 0 5 C-2.62 4.62 -2.62 4.62 -5 4 C-5 3.34 -5 2.68 -5 2 C-2 0 -2 0 0 0 Z " fill="#56BCE6" transform="translate(197,220)"/>
<path d="M0 0 C3.8 1.49 5.61 3.76 8 7 C5 7 5 7 2.31 4.62 C0 2 0 2 0 0 Z " fill="#2F2F2F" transform="translate(87,188)"/>
<path d="M0 0 C1.32 0 2.64 0 4 0 C3.34 1.65 2.68 3.3 2 5 C2.66 5.33 3.32 5.66 4 6 C2.68 6.33 1.36 6.66 0 7 C0 4.69 0 2.38 0 0 Z " fill="#6B6B6B" transform="translate(110,142)"/>
<path d="M0 0 C1.65 0.33 3.3 0.66 5 1 C5.33 1.99 5.66 2.98 6 4 C4.68 4 3.36 4 2 4 C1.01 4.33 0.02 4.66 -1 5 C-0.67 3.35 -0.34 1.7 0 0 Z " fill="#24A8DF" transform="translate(63,223)"/>
<path d="M0 0 C0 0.99 0 1.98 0 3 C-1.98 3.66 -3.96 4.32 -6 5 C-6 3.68 -6 2.36 -6 1 C-3 0 -3 0 0 0 Z " fill="#888888" transform="translate(110,101)"/>
<path d="M0 0 C1.32 0.66 2.64 1.32 4 2 C3.34 3.32 2.68 4.64 2 6 C1.34 6 0.68 6 0 6 C-0.38 4.34 -0.71 2.68 -1 1 C-0.67 0.67 -0.34 0.34 0 0 Z " fill="#1FA6DE" transform="translate(203,212)"/>
<path d="M0 0 C-1.29 2.87 -2.57 4.98 -5 7 C-5.66 7 -6.32 7 -7 7 C-3.86 0 -3.86 0 0 0 Z " fill="#059CDA" transform="translate(44,205)"/>
<path d="M0 0 C0.66 1.32 1.32 2.64 2 4 C-0.34 3.74 -2.68 3.41 -5 3 C-5.33 2.34 -5.66 1.68 -6 1 C-3.92 0.45 -2.16 0 0 0 Z " fill="#2F2F2F" transform="translate(151,158)"/>
<path d="M0 0 C1.98 0.66 3.96 1.32 6 2 C6 2.66 6 3.32 6 4 C4.68 4 3.36 4 2 4 C1.67 4.66 1.34 5.32 1 6 C0.67 4.02 0.34 2.04 0 0 Z " fill="#E6F5FB" transform="translate(0,154)"/>
<path d="M0 0 C0.99 0.66 1.98 1.32 3 2 C3 2.99 3 3.98 3 5 C1.35 5 -0.3 5 -2 5 C-1.12 1.12 -1.12 1.12 0 0 Z " fill="#F8F8F8" transform="translate(122,115)"/>
<path d="M0 0 C1.98 0.49 1.98 0.49 4 1 C3.34 2.32 2.68 3.64 2 5 C1.01 4.67 0.02 4.34 -1 4 C-0.67 2.68 -0.34 1.36 0 0 Z " fill="#CFECF8" transform="translate(154,14)"/>
<path d="M0 0 C0.66 0 1.32 0 2 0 C3.29 1.53 3.29 1.53 4.62 3.5 C5.07 4.15 5.52 4.8 5.98 5.47 C6.31 5.97 6.65 6.48 7 7 C6.01 7 5.02 7 4 7 C0 2.66 0 2.66 0 0 Z " fill="#0B191E" transform="translate(84,174)"/>
<path d="M0 0 C0 0.66 0 1.32 0 2 C-1.98 2.66 -3.96 3.32 -6 4 C-6 3.34 -6 2.68 -6 2 C-6.66 1.67 -7.32 1.34 -8 1 C-5.11 0.17 -3.11 0 0 0 Z " fill="#2BABE0" transform="translate(22,172)"/>
<path d="M0 0 C2.97 0.33 5.94 0.66 9 1 C7.68 1.33 6.36 1.66 5 2 C5 2.66 5 3.32 5 4 C2.53 3.01 2.53 3.01 0 2 C0 1.34 0 0.68 0 0 Z " fill="#33AEE1" transform="translate(229,164)"/>
<path d="M0 0 C1.65 0 3.3 0 5 0 C4.67 1.32 4.34 2.64 4 4 C2.68 3.67 1.36 3.34 0 3 C0 2.01 0 1.02 0 0 Z " fill="#E0E0E0" transform="translate(121,130)"/>
<path d="M0 0 C0.33 0.66 0.66 1.32 1 2 C2.65 2 4.3 2 6 2 C3 4 3 4 0.5 3.75 C-2 3 -2 3 -5 1 C-3.35 0.67 -1.7 0.34 0 0 Z " fill="#0C171B" transform="translate(107,125)"/>
<path d="M0 0 C0.99 0 1.98 0 3 0 C3 1.98 3 3.96 3 6 C2.01 6 1.02 6 0 6 C0 4.02 0 2.04 0 0 Z " fill="#ACACAC" transform="translate(135,121)"/>
<path d="M0 0 C1.65 0 3.3 0 5 0 C4.67 1.32 4.34 2.64 4 4 C2.68 4 1.36 4 0 4 C0 2.68 0 1.36 0 0 Z " fill="#DADADA" transform="translate(139,122)"/>
<path d="M0 0 C1.32 0.33 2.64 0.66 4 1 C3.67 2.32 3.34 3.64 3 5 C2.01 4.67 1.02 4.34 0 4 C0 2.68 0 1.36 0 0 Z " fill="#E5F4FB" transform="translate(147,239)"/>
<path d="M0 0 C0.99 0.33 1.98 0.66 3 1 C3 2.32 3 3.64 3 5 C1.68 4.67 0.36 4.34 -1 4 C-0.67 2.68 -0.34 1.36 0 0 Z " fill="#E9F6FB" transform="translate(160,235)"/>
<path d="M0 0 C1.98 0.5 1.98 0.5 4 1 C3.67 1.99 3.34 2.98 3 4 C1.68 4 0.36 4 -1 4 C-0.67 2.68 -0.34 1.36 0 0 Z " fill="#ECF7FC" transform="translate(7,140)"/>
<path d="M0 0 C1.98 0.5 1.98 0.5 4 1 C4 1.99 4 2.98 4 4 C2.35 3.67 0.7 3.34 -1 3 C-0.67 2.01 -0.34 1.02 0 0 Z " fill="#E5F5FB" transform="translate(6,128)"/>
<path d="M0 0 C1.98 0 3.96 0 6 0 C6 0.66 6 1.32 6 2 C3.69 2.33 1.38 2.66 -1 3 C-0.67 2.01 -0.34 1.02 0 0 Z " fill="#E0F2FA" transform="translate(236,113)"/>
<path d="M0 0 C-0.33 0.66 -0.66 1.32 -1 2 C-3.31 2 -5.62 2 -8 2 C-6.14 -1.72 -3.45 -1.07 0 0 Z " fill="#EBEBEB" transform="translate(118,113)"/>
<path d="M0 0 C2.47 0.5 2.47 0.5 5 1 C4.67 1.99 4.34 2.98 4 4 C2.68 3.67 1.36 3.34 0 3 C0 2.01 0 1.02 0 0 Z " fill="#E8F6FB" transform="translate(11,89)"/>
<path d="M0 0 C2.96 0.61 4.38 1.25 7 3 C6.34 3.66 5.68 4.32 5 5 C2.5 3.62 2.5 3.62 0 2 C0 1.34 0 0.68 0 0 Z " fill="#1BA4DD" transform="translate(9,71)"/>
<path d="M0 0 C0.66 0.33 1.32 0.66 2 1 C0.35 2.65 -1.3 4.3 -3 6 C-3.66 5.34 -4.32 4.68 -5 4 C-3.35 2.68 -1.7 1.36 0 0 Z " fill="#12A1DC" transform="translate(217,55)"/>
<path d="M0 0 C1.98 0.5 1.98 0.5 4 1 C3.01 1.5 3.01 1.5 2 2 C1.35 4.02 1.35 4.02 1 6 C0.34 6 -0.32 6 -1 6 C-0.67 4.02 -0.34 2.04 0 0 Z " fill="#20A6DE" transform="translate(161,22)"/>
<path d="M0 0 C0.66 0.33 1.32 0.66 2 1 C1.67 2.32 1.34 3.64 1 5 C-0.65 5 -2.3 5 -4 5 C-4 4.34 -4 3.68 -4 3 C-3.01 2.67 -2.02 2.34 -1 2 C-0.67 1.34 -0.34 0.68 0 0 Z " fill="#30ADE1" transform="translate(81,20)"/>
<path d="M0 0 C0.99 0.33 1.98 0.66 3 1 C3 2.32 3 3.64 3 5 C1.68 4.67 0.36 4.34 -1 4 C-0.67 2.68 -0.34 1.36 0 0 Z " fill="#E3F4FB" transform="translate(117,9)"/>
<path d="M0 0 C0.99 0 1.98 0 3 0 C3 0.66 3 1.32 3 2 C2.34 2 1.68 2 1 2 C1 3.65 1 5.3 1 7 C0.01 6.67 -0.98 6.34 -2 6 C-1.12 1.12 -1.12 1.12 0 0 Z " fill="#2BABE0" transform="translate(128,0)"/>
</svg>
